<?xml version="1.0" encoding="UTF-8"?>
<svg id="Layer_1" data-name="Layer 1" xmlns="http://www.w3.org/2000/svg" viewBox="0 0 405.96 230.3">
  <defs>
    <style>
      .cls-1 {
        fill: #14753d;
      }

      .cls-2 {
        fill: #11532e;
      }

      .cls-3 {
        fill: #15753d;
      }
    </style>
  </defs>
  <path class="cls-3" d="M279.38,67.61c-7.39,25.17-16.54,35.8-39.29,48.25-17.39,9.52-35.94,17.08-53.26,26.78-.64-3.86.7-8.19,1.56-12.01,9.65-42.87,35.42-83.7,79-97.5,28.33-8.98,59.39-5.83,88.79-8.39,15.06-1.31,29.92-4.16,44.66-7.14,6.14,64.36-33.84,134.08-101.91,142.11-23.64,2.79-51.25-2.6-73.52-10.62-5.48-1.97-12.25-4.31-16.78-7.86,13.4-6.02,26.16-13.33,39.53-19.43,41.36-18.84,78.95-30.14,114.81-59.9,2.54-3.73,6.86-6.8,10.72-9.29,2.85-2.99,2.62-3.23-.71-.71-1.66,2.01-7.46,7.96-9.67,8.74-.29.1-.66,0-1.05-.17-29.14,21.07-63.92,35.5-98.27,45.72-1.85.31-.67-.93-.2-1.64,9.25-14.01,12.98-17.95,16.3-35.51,2.11-9.44,1.88-9.92-.71-1.43Z"/>
  <path class="cls-1" d="M152.19,56.17c4.26,3.93,7.31,8.95,9.15,15.05,3.02,4.04,4.99,8,5.76,13.01,1.95,3.15,2.95,6.5,3.99,10,1.13,3.84,7.21,33.64,4.85,34.2-.89.21-2-.45-3.17-1.38-26.94-21.91-53.05-44.63-78.33-68.16l-.85-2.02c-4.15-2.16-7.85-6.23-10.72-10-.5-.02-.74.22-.71.71,3.72,2.59,7.86,6.09,10,10,.8-.19,1.45.27,1.94,1.36,2.55,2.3,24.95,23.49,22.97,24.6-5.44-.84-10.86-2.38-16.24-4.62-15.49-3.77-31.24-5.88-47.26-6.33-2.68.67-1.96,1.14,2.14,1.43,5.83-1.31,12.7-.58,18.79.15,26.63,3.23,50.68,15.09,70.95,32.33,9.99,8.49,20.14,16.79,30.45,24.89.96.99,2.65,14.26,1.36,15.91-1.95,2.5-8.04,4.04-11.12,4.17-4.48,2.44-8.89,3.45-13.97,3.29-4.3-.2-8.91,1.24-13.19,1.46-38.72,1.95-75.02-15.65-97.73-46.68C21.4,82.41,9.78,46.92,12.55,13.22c4.77-1.23,9.59-2.46,14.46-3.27,47.21-7.79,97.36,5.3,125.18,46.22Z"/>
  <path class="cls-2" d="M367.27,138.36c.81.76-11.99,16.47-13.21,17.87-41.03,46.94-104.8,72.35-167.21,66.44-56.37-5.34-109.3-37.29-141.14-83.59l13.92,10.73c43.82,29.69,95.19,21.13,139.36-2.61,46.64,21.78,100.89,32.65,147.78,5.32l20.5-14.15Z"/>
</svg>